<svg aria-hidden="true" style="position: absolute; width: 0; height: 0; overflow: hidden;" version="1.1" xmlns="http://www.w3.org/2000/svg" xmlns:xlink="http://www.w3.org/1999/xlink">
<defs>
<symbol id="icon-menu" viewBox="0 0 47 32">
<path stroke-linejoin="round" stroke-linecap="round" stroke-miterlimit="4" stroke-width="4.3636" d="M1.961 29.153h42.964M1.961 15.615h42.964M1.961 2.077h42.964"></path>
</symbol>
<symbol id="icon-insta" viewBox="0 0 32 32">
<path d="M31.968 9.408c-0.075-1.7-0.349-2.869-0.743-3.883-0.424-1.111-1.054-2.058-1.849-2.836l-0.001-0.001c-0.78-0.792-1.724-1.419-2.778-1.826l-0.054-0.018c-1.019-0.393-2.183-0.671-3.883-0.744-1.712-0.080-2.256-0.1-6.6-0.1-4.347 0-4.889 0.019-6.596 0.093-1.7 0.076-2.869 0.351-3.881 0.744-1.112 0.424-2.059 1.054-2.837 1.849l-0.001 0.001c-0.792 0.78-1.419 1.724-1.826 2.778l-0.018 0.054c-0.393 1.019-0.669 2.181-0.744 3.88-0.080 1.715-0.1 2.259-0.1 6.603 0 4.345 0.019 4.889 0.093 6.596 0.077 1.7 0.351 2.868 0.744 3.881 0.427 1.111 1.056 2.057 1.85 2.838l0.001 0.001c0.8 0.813 1.769 1.444 2.832 1.844 1.019 0.393 2.181 0.668 3.881 0.744 1.707 0.075 2.251 0.093 6.596 0.093 4.344 0 4.888-0.019 6.595-0.093 1.7-0.076 2.869-0.351 3.881-0.744 2.157-0.85 3.833-2.526 4.663-4.627l0.019-0.055c0.393-1.019 0.669-2.181 0.744-3.881 0.075-1.707 0.093-2.251 0.093-6.596 0-4.344-0.005-4.888-0.080-6.595zM29.088 22.473c-0.071 1.563-0.333 2.407-0.551 2.969-0.552 1.4-1.64 2.487-3.004 3.025l-0.036 0.012c-0.561 0.22-1.412 0.481-2.968 0.551-1.688 0.075-2.195 0.093-6.464 0.093s-4.783-0.019-6.464-0.093c-1.563-0.069-2.407-0.331-2.969-0.551-0.721-0.269-1.335-0.676-1.836-1.192l-0.001-0.001c-0.517-0.504-0.924-1.117-1.183-1.803l-0.011-0.034c-0.219-0.563-0.48-1.413-0.549-2.969-0.076-1.688-0.093-2.195-0.093-6.464 0-4.271 0.017-4.783 0.093-6.464 0.068-1.563 0.331-2.407 0.549-2.969 0.257-0.693 0.663-1.325 1.2-1.839 0.504-0.517 1.118-0.923 1.804-1.182l0.034-0.011c0.563-0.219 1.413-0.48 2.969-0.551 1.688-0.075 2.195-0.093 6.464-0.093 4.276 0 4.781 0.019 6.464 0.093 1.563 0.069 2.407 0.332 2.969 0.551 0.693 0.256 1.324 0.663 1.837 1.193 0.531 0.52 0.937 1.144 1.193 1.839 0.22 0.563 0.481 1.413 0.551 2.969 0.075 1.688 0.093 2.193 0.093 6.464 0 4.269-0.019 4.769-0.093 6.457z"></path>
<path d="M16.059 7.783c-4.539 0.002-8.218 3.681-8.22 8.22v0c0.001 4.54 3.68 8.22 8.22 8.221h0c4.54-0.002 8.219-3.682 8.22-8.221v-0c-0.002-4.539-3.681-8.218-8.22-8.22h-0zM16.059 21.336c-2.945-0.001-5.332-2.388-5.332-5.333s2.388-5.333 5.333-5.333c0 0 0.001 0 0.001 0h-0c2.945 0.001 5.332 2.388 5.332 5.333s-2.388 5.333-5.333 5.333c-0 0-0.001 0-0.001 0h0zM26.524 7.457c0.001 0.021 0.001 0.046 0.001 0.072 0 1.060-0.86 1.92-1.92 1.92s-1.92-0.86-1.92-1.92c0-0.025 0-0.050 0.001-0.075l-0 0.004c0.040-1.029 0.883-1.848 1.919-1.848s1.879 0.819 1.919 1.845l0 0.004z"></path>
</symbol>
<symbol id="icon-twit" viewBox="0 0 37 32">
<path d="M36.571 4.661c-1.257 0.564-2.715 0.98-4.242 1.176l-0.078 0.008c1.554-0.933 2.722-2.375 3.283-4.091l0.015-0.053c-1.369 0.826-2.961 1.456-4.658 1.799l-0.096 0.016c-1.372-1.462-3.315-2.372-5.472-2.372-4.14 0-7.497 3.356-7.497 7.497v0c0 0.594 0.050 1.166 0.174 1.71-6.249-0.316-11.746-3.289-15.423-7.804l-0.031-0.039c-0.643 1.084-1.023 2.39-1.023 3.784 0 2.588 1.309 4.87 3.301 6.22l0.026 0.017c-1.248-0.034-2.41-0.371-3.425-0.94l0.037 0.019v0.082c0.004 3.616 2.556 6.635 5.958 7.358l0.049 0.009c-0.572 0.157-1.229 0.247-1.907 0.247-0.021 0-0.041-0-0.062-0l0.003 0c-0.035 0.001-0.076 0.001-0.118 0.001-0.461 0-0.91-0.047-1.344-0.136l0.043 0.007c0.998 2.998 3.741 5.138 6.996 5.223l0.010 0c-2.531 1.994-5.764 3.198-9.279 3.198-0.006 0-0.012 0-0.017 0h0.001c-0.615 0-1.205-0.027-1.794-0.103 3.23 2.11 7.185 3.365 11.433 3.365 0.024 0 0.048-0 0.073-0h-0.004c13.797 0 21.339-11.429 21.339-21.335 0-0.331-0.011-0.651-0.027-0.969 1.484-1.071 2.732-2.361 3.724-3.839l0.034-0.054z"></path>
</symbol>
<symbol id="icon-fac" viewBox="0 0 18 32">
<path d="M13.33 5.314h2.92v-5.088c-1.238-0.144-2.672-0.226-4.125-0.226-0.045 0-0.089 0-0.134 0l0.007-0c-4.214 0-7.1 2.65-7.1 7.52v4.48h-4.648v5.688h4.648v14.312h5.7v-14.31h4.46l0.704-5.69h-5.166v-3.92c0-1.644 0.444-2.768 2.734-2.768z"></path>
</symbol>
<symbol id="icon-linkedin" viewBox="0 0 32 32">
<path d="M31.992 32h0.008v-11.74c0-5.74-1.236-10.164-7.948-10.164-3.228 0-5.392 1.772-6.276 3.45h-0.096v-2.912h-6.36v21.366h6.628v-10.58c0-2.786 0.528-5.48 3.976-5.48 3.4 0 3.45 3.18 3.45 5.66v10.4h6.62zM0.528 10.636h6.632v21.364h-6.632v-21.364zM3.842 0c-2.12 0-3.842 1.72-3.842 3.84s1.72 3.88 3.842 3.88 3.844-1.76 3.844-3.88c-0.002-2.118-1.726-3.84-3.846-3.84z"></path>
</symbol>
<symbol id="icon-airplane" viewBox="0 0 38 32">
<path d="M38.4 0l-38.4 18 12.272 3.787 18.928-14.787-14.397 16.186 0.011 0.005-0.014-0.005v8.814l6.882-6.691 8.72 2.691 5.998-28z"></path>
</symbol>
<symbol id="icon-Logo1" viewBox="0 0 63 32">
<path d="M23.345 2.286l3.906 3.909-7.251-0.005v18.965h18.954v-7.251l3.903 3.906v-19.523h-19.512zM38.783 17.445l-11.077-11.083h11.077v11.083zM35.343 22.381h-12.343v-12.754h0.873v11.891h11.472v0.863zM25.483 28.624l-0.471-0.97h-0.389l0.683 1.283v0.748h0.353v-0.749l0.683-1.283h-0.388l-0.471 0.97zM27.221 27.654h0.084l0.767 2.031h-0.369l-0.165-0.476h-0.786l-0.164 0.476h-0.367l0.765-2.031h0.234zM26.849 28.932h0.594l-0.297-0.862-0.297 0.862zM29.303 28.595c-0.004-0.004-0.018-0.023-0.032-0.041l-0.012-0.016c-0.045-0.058-0.085-0.123-0.118-0.193l-0.003-0.006c-0.027-0.059-0.043-0.128-0.043-0.201v-0c0-0.106 0.022-0.197 0.066-0.273s0.107-0.136 0.183-0.175l0.003-0.001c0.080-0.042 0.173-0.063 0.28-0.063 0.103 0 0.192 0.021 0.267 0.063 0.141 0.075 0.236 0.22 0.236 0.388 0 0.063-0.013 0.123-0.037 0.177l0.001-0.003c-0.025 0.056-0.057 0.104-0.097 0.145l0-0c-0.043 0.045-0.089 0.086-0.139 0.122l-0.003 0.002-0.141 0.103 0.402 0.474c0.055-0.107 0.087-0.234 0.087-0.369 0-0.004-0-0.008-0-0.011v0.001h0.29c0 0.099-0.010 0.193-0.029 0.281-0.027 0.128-0.079 0.24-0.15 0.337l0.002-0.002 0.297 0.351h-0.389l-0.118-0.139c-0.060 0.046-0.129 0.084-0.203 0.112l-0.005 0.002c-0.092 0.034-0.198 0.053-0.309 0.053-0.002 0-0.004 0-0.006-0h0c-0.135 0-0.251-0.025-0.35-0.074-0.095-0.046-0.172-0.116-0.227-0.201l-0.001-0.002c-0.050-0.082-0.080-0.181-0.080-0.288 0-0.003 0-0.007 0-0.010v0c0-0.083 0.017-0.155 0.052-0.218s0.081-0.122 0.141-0.176c0.055-0.050 0.117-0.099 0.187-0.15zM29.47 28.8l-0.042 0.030c-0.042 0.033-0.079 0.071-0.109 0.114l-0.001 0.002c-0.036 0.053-0.057 0.118-0.057 0.188 0 0.057 0.014 0.11 0.039 0.157l-0.001-0.002c0.026 0.049 0.065 0.088 0.111 0.115l0.001 0.001c0.050 0.026 0.109 0.042 0.171 0.042 0.004 0 0.008-0 0.012-0h-0.001c0.077 0 0.152-0.017 0.225-0.051 0.037-0.018 0.071-0.039 0.103-0.064l-0.451-0.531zM29.55 28.429l0.125-0.083c0.049-0.031 0.091-0.069 0.125-0.113l0.001-0.001c0.023-0.038 0.037-0.084 0.037-0.133 0-0.004-0-0.007-0-0.011l0 0c-0.004-0.109-0.093-0.196-0.202-0.196-0.004 0-0.008 0-0.012 0l0.001-0c-0.002-0-0.004-0-0.006-0-0.083 0-0.154 0.049-0.188 0.119l-0.001 0.001c-0.015 0.034-0.024 0.074-0.024 0.115 0 0.049 0.012 0.095 0.034 0.135l-0.001-0.002c0.032 0.064 0.069 0.119 0.112 0.169l-0.001-0.001zM33.105 29.024h-0.349c-0.008 0.083-0.031 0.16-0.066 0.229l0.002-0.004c-0.032 0.060-0.080 0.107-0.139 0.137l-0.002 0.001c-0.064 0.030-0.14 0.048-0.22 0.048-0.008 0-0.015-0-0.023-0l0.001 0c-0.004 0-0.008 0-0.012 0-0.073 0-0.141-0.018-0.201-0.050l0.002 0.001c-0.060-0.034-0.109-0.081-0.144-0.137l-0.001-0.002c-0.038-0.061-0.066-0.133-0.083-0.209l-0.001-0.004c-0.017-0.080-0.026-0.172-0.026-0.266 0-0.005 0-0.009 0-0.014v0.001-0.171c0-0.108 0.010-0.203 0.029-0.287 0.021-0.085 0.051-0.156 0.091-0.213s0.090-0.102 0.149-0.131c0.058-0.028 0.126-0.045 0.198-0.045 0.004 0 0.008 0 0.012 0h-0.001c0.097 0 0.177 0.017 0.237 0.050s0.106 0.080 0.137 0.142c0.031 0.062 0.051 0.137 0.061 0.225h0.349c-0.012-0.135-0.053-0.257-0.117-0.365l0.002 0.004c-0.062-0.106-0.15-0.19-0.256-0.246l-0.004-0.002c-0.112-0.056-0.243-0.090-0.383-0.090-0.010 0-0.019 0-0.029 0l0.001-0c-0.127 0-0.242 0.023-0.345 0.067-0.101 0.045-0.189 0.11-0.261 0.194s-0.13 0.186-0.166 0.297l-0.002 0.006c-0.038 0.118-0.057 0.25-0.057 0.396v0.169c0 0.146 0.019 0.278 0.056 0.397 0.038 0.118 0.093 0.219 0.165 0.303 0.071 0.082 0.158 0.147 0.258 0.192s0.213 0.067 0.339 0.067c0.164 0 0.303-0.030 0.417-0.090s0.203-0.141 0.266-0.244c0.063-0.104 0.101-0.223 0.112-0.356zM35.042 28.726v-0.111c0-0.154-0.020-0.291-0.061-0.411-0.038-0.12-0.097-0.224-0.172-0.313l0.001 0.001c-0.072-0.084-0.161-0.15-0.262-0.195l-0.005-0.002c-0.098-0.043-0.212-0.069-0.333-0.069-0.004 0-0.007 0-0.011 0h0.001c-0.125 0-0.239 0.023-0.342 0.069-0.105 0.047-0.194 0.113-0.266 0.196l-0.001 0.001c-0.075 0.087-0.134 0.191-0.171 0.304l-0.002 0.006c-0.039 0.117-0.062 0.253-0.062 0.393 0 0.006 0 0.013 0 0.019v-0.001 0.112c0 0.154 0.021 0.291 0.062 0.413s0.101 0.225 0.176 0.311c0.142 0.162 0.349 0.265 0.58 0.265 0.010 0 0.020-0 0.029-0.001l-0.001 0c0.126 0 0.24-0.023 0.343-0.067 0.103-0.046 0.192-0.111 0.265-0.197 0.074-0.086 0.131-0.189 0.171-0.311s0.061-0.259 0.061-0.413zM34.692 28.611v0.114c0 0.114-0.011 0.214-0.034 0.301-0.019 0.084-0.052 0.159-0.096 0.225l0.002-0.002c-0.039 0.057-0.091 0.102-0.151 0.134l-0.002 0.001c-0.059 0.029-0.127 0.045-0.2 0.045-0.003 0-0.006-0-0.008-0h0c-0.002 0-0.005 0-0.007 0-0.072 0-0.141-0.017-0.202-0.046l0.003 0.001c-0.063-0.033-0.116-0.078-0.156-0.134l-0.001-0.001c-0.044-0.064-0.077-0.138-0.096-0.218l-0.001-0.005c-0.022-0.086-0.034-0.186-0.034-0.288 0-0.005 0-0.009 0-0.014v0.001-0.114c0-0.114 0.011-0.214 0.034-0.3 0.022-0.087 0.054-0.16 0.096-0.219 0.040-0.057 0.092-0.102 0.152-0.133l0.002-0.001c0.058-0.029 0.126-0.046 0.198-0.046 0.003 0 0.006 0 0.010 0h-0c0.077 0 0.147 0.015 0.208 0.046s0.113 0.074 0.154 0.134c0.043 0.058 0.075 0.131 0.097 0.219 0.022 0.086 0.033 0.186 0.033 0.3z"></path>
</symbol>
<symbol id="icon-Logo3" viewBox="0 0 63 32">
<path d="M22.749 27.556c0.009 0 0.018 0.002 0.027 0.006s0.016 0.008 0.022 0.013l-0-0 0.126 0.119c-0.099 0.096-0.216 0.172-0.347 0.223l-0.007 0.002c-0.159 0.057-0.331 0.085-0.503 0.081-0.008 0-0.017 0-0.027 0-0.16 0-0.314-0.028-0.457-0.079l0.009 0.003c-0.138-0.049-0.257-0.122-0.357-0.213l0.001 0.001c-0.097-0.090-0.175-0.2-0.228-0.323l-0.002-0.006c-0.051-0.121-0.080-0.261-0.080-0.408 0-0.005 0-0.009 0-0.014v0.001c-0-0.004-0-0.009-0-0.014 0-0.148 0.032-0.288 0.089-0.415l-0.003 0.006c0.055-0.123 0.138-0.234 0.245-0.329 0.108-0.093 0.237-0.166 0.379-0.215 0.141-0.048 0.303-0.076 0.471-0.076 0.005 0 0.011 0 0.016 0h-0.001c0.155-0.003 0.309 0.021 0.453 0.069 0.125 0.047 0.239 0.111 0.339 0.19l-0.106 0.127c-0.008 0.009-0.016 0.017-0.026 0.023l-0 0c-0.011 0.006-0.023 0.010-0.037 0.010-0.002 0-0.004-0-0.006-0h0c-0.017-0.001-0.033-0.006-0.046-0.014l0 0-0.057-0.034-0.079-0.043c-0.072-0.035-0.156-0.061-0.244-0.075l-0.005-0.001c-0.052-0.008-0.111-0.013-0.172-0.013-0.006 0-0.011 0-0.016 0h0.001c-0.004-0-0.008-0-0.013-0-0.121 0-0.237 0.021-0.345 0.059l0.007-0.002c-0.106 0.037-0.197 0.091-0.275 0.16l0.001-0.001c-0.079 0.074-0.139 0.16-0.178 0.254-0.041 0.096-0.065 0.207-0.065 0.324 0 0.003 0 0.007 0 0.010v-0.001c-0 0.003-0 0.007-0 0.011 0 0.118 0.024 0.231 0.067 0.334l-0.002-0.006c0.081 0.193 0.238 0.34 0.432 0.407l0.005 0.002c0.103 0.037 0.213 0.055 0.325 0.054 0.065 0.001 0.129-0.003 0.193-0.011 0.16-0.016 0.303-0.079 0.417-0.175l-0.001 0.001c0.016-0.013 0.037-0.021 0.060-0.022h0zM26.392 26.96c0.002 0.143-0.027 0.286-0.085 0.419-0.051 0.122-0.132 0.233-0.238 0.326-0.105 0.092-0.229 0.165-0.365 0.211l-0.008 0.002c-0.143 0.048-0.308 0.076-0.479 0.076s-0.336-0.028-0.49-0.079l0.011 0.003c-0.143-0.050-0.267-0.123-0.373-0.215l0.001 0.001c-0.101-0.090-0.182-0.2-0.237-0.323l-0.002-0.006c-0.054-0.124-0.085-0.268-0.085-0.42s0.031-0.296 0.088-0.427l-0.003 0.007c0.054-0.122 0.135-0.234 0.24-0.33 0.106-0.090 0.232-0.16 0.371-0.206 0.309-0.103 0.65-0.103 0.959 0 0.14 0.049 0.267 0.122 0.372 0.214 0.199 0.177 0.324 0.435 0.324 0.721 0 0.009-0 0.018-0 0.027l0-0.001zM26.061 26.96c0.003-0.114-0.017-0.228-0.059-0.337-0.077-0.196-0.234-0.346-0.431-0.41l-0.005-0.001c-0.104-0.035-0.224-0.055-0.349-0.055s-0.244 0.020-0.357 0.058l0.008-0.002c-0.104 0.036-0.192 0.091-0.267 0.16l0-0c-0.073 0.069-0.131 0.153-0.169 0.247l-0.002 0.005c-0.080 0.219-0.080 0.454 0 0.674 0.035 0.093 0.094 0.179 0.17 0.251 0.074 0.069 0.166 0.123 0.267 0.158 0.104 0.034 0.224 0.054 0.349 0.054s0.244-0.020 0.357-0.056l-0.008 0.002c0.101-0.034 0.193-0.089 0.266-0.158 0.076-0.073 0.133-0.159 0.169-0.251 0.042-0.109 0.063-0.223 0.059-0.337zM28.878 27.314l0.033 0.075c0.013-0.027 0.023-0.051 0.036-0.075 0.012-0.026 0.026-0.050 0.041-0.074l0.806-1.251c0.016-0.022 0.030-0.035 0.046-0.040s0.035-0.007 0.054-0.007c0.005 0 0.009 0 0.013 0l-0.001-0h0.238v2.036h-0.282v-1.56c-0.001-0.011-0.001-0.023-0.001-0.035s0-0.025 0.001-0.037l-0 0.002-0.811 1.269c-0.011 0.020-0.027 0.036-0.047 0.046l-0.001 0c-0.020 0.011-0.043 0.017-0.068 0.017-0 0-0 0-0 0h-0.046c-0.001 0-0.001 0-0.002 0-0.025 0-0.048-0.006-0.069-0.018l0.001 0c-0.020-0.010-0.036-0.026-0.047-0.045l-0-0.001-0.834-1.278v1.634h-0.273v-2.032h0.238c0.003-0 0.007-0 0.011-0 0.020 0 0.039 0.003 0.057 0.007l-0.002-0c0.019 0.008 0.034 0.021 0.044 0.038l0 0 0.823 1.253c0.016 0.023 0.030 0.048 0.041 0.073zM31.911 27.213v0.762h-0.315v-2.033h0.703c0.133-0.002 0.265 0.013 0.393 0.045 0.103 0.025 0.197 0.067 0.278 0.126 0.067 0.052 0.121 0.12 0.156 0.197l0.001 0.003c0.037 0.083 0.055 0.171 0.054 0.26 0 0.003 0 0.006 0 0.009 0 0.185-0.089 0.35-0.227 0.453l-0.001 0.001c-0.079 0.060-0.173 0.106-0.274 0.134l-0.006 0.001c-0.123 0.033-0.251 0.049-0.38 0.047l-0.382-0.006zM31.911 26.994h0.382c0.083 0.001 0.166-0.010 0.245-0.031 0.068-0.019 0.127-0.049 0.178-0.088l-0.001 0.001c0.089-0.071 0.145-0.18 0.145-0.301 0-0.002 0-0.003-0-0.005v0c0-0.006 0.001-0.013 0.001-0.021 0-0.053-0.012-0.103-0.033-0.147l0.001 0.002c-0.027-0.055-0.064-0.102-0.109-0.138l-0.001-0.001c-0.106-0.070-0.235-0.111-0.374-0.111-0.018 0-0.035 0.001-0.053 0.002l0.002-0h-0.382v0.838zM36.151 27.978h-0.249c-0.002 0-0.003 0-0.005 0-0.024 0-0.046-0.007-0.065-0.019l0 0c-0.017-0.012-0.031-0.028-0.040-0.046l-0-0.001-0.215-0.492h-1.077l-0.223 0.491c-0.009 0.019-0.022 0.034-0.038 0.045l-0 0c-0.019 0.013-0.042 0.021-0.067 0.021-0.001 0-0.003-0-0.004-0h-0.25l0.947-2.036h0.328l0.959 2.036zM34.589 27.222h0.89l-0.375-0.829c-0.025-0.053-0.049-0.116-0.069-0.182l-0.002-0.009-0.037 0.106c-0.011 0.033-0.023 0.062-0.034 0.086l-0.373 0.829zM37.514 25.951c0.019 0.009 0.035 0.021 0.047 0.036l0 0 1.38 1.535v-1.581h0.282v2.036h-0.158c-0.002 0-0.004 0-0.006 0-0.021 0-0.041-0.004-0.060-0.012l0.001 0c-0.020-0.010-0.036-0.023-0.050-0.038l-0-0-1.379-1.534c0.001 0.011 0.001 0.023 0.001 0.035s-0 0.025-0.001 0.037l0-0.002v1.513h-0.282v-2.036h0.167c0.020-0.001 0.039 0.002 0.057 0.009zM41.549 27.168v0.809h-0.315v-0.809l-0.872-1.226h0.282c0.002-0 0.005-0 0.007-0 0.023 0 0.044 0.006 0.061 0.018l-0-0c0.017 0.014 0.031 0.029 0.042 0.046l0.546 0.791c0.037 0.052 0.070 0.112 0.094 0.175l0.002 0.005 0.041-0.087c0.015-0.032 0.034-0.063 0.054-0.093l0.538-0.797c0.012-0.016 0.025-0.030 0.041-0.043l0-0c0.017-0.013 0.039-0.020 0.062-0.020 0.002 0 0.004 0 0.006 0h0.285l-0.874 1.231zM28.722 22.524c0.137 0.015 0.276 0.027 0.416 0.038 2.129-0.814 3.929-2.145 5.177-3.828s1.887-3.642 1.838-5.634l-2.346-2.004c0.477 2.121 0.254 4.313-0.644 6.331-0.898 2.018-2.436 3.783-4.441 5.097z"></path>
<path d="M27.885 22.431l0.063 0.011c2.143-1.31 3.777-3.138 4.69-5.25 0.914-2.111 1.065-4.408 0.434-6.593l-3.341-2.855c1.351 2.346 1.895 4.972 1.568 7.572s-1.51 5.067-3.414 7.115zM39.215 15.453c-0.568 2.189-1.946 4.162-3.931 5.627-0.541 0.405-1.152 0.786-1.796 1.113l-0.071 0.033c1.617-0.406 3.102-1.123 4.342-2.097s2.202-2.178 2.811-3.52l-1.355-1.156z"></path>
<path d="M38.683 15.131l-1.929-1.649c-0.037 1.879-0.662 3.715-1.811 5.318s-2.778 2.914-4.721 3.796h0.009c0.433 0 0.865-0.022 1.295-0.066 1.815-0.633 3.418-1.64 4.667-2.931s2.104-2.826 2.489-4.469zM28.163 6.541l-2.301-1.969c-2.057 0.679-3.827 1.873-5.077 3.426s-1.922 3.392-1.929 5.277c0.008 2.082 0.828 4.103 2.331 5.742s3.603 2.803 5.967 3.308c2.111-2.197 3.347-4.913 3.528-7.751s-0.702-5.651-2.52-8.032zM44 14.827c-0.009-2.471-1.161-4.838-3.206-6.585-2.044-1.747-4.815-2.731-7.706-2.739-0.007-0-0.016-0-0.025-0-1.388 0-2.723 0.227-3.97 0.647l0.088-0.026 14.091 12.039c0.459-0.98 0.727-2.127 0.729-3.337v-0.001z"></path>
</symbol>
<symbol id="icon-Logo4" viewBox="0 0 63 32">
<path d="M14.789 11.725h-0.002c-1.363 0-2.469 0.997-2.469 2.225v0.002c0 1.229 1.106 2.225 2.469 2.225h0.002c1.363 0 2.469-0.996 2.469-2.225v-0.002c0-1.229-1.105-2.225-2.469-2.225zM33.007 11.013c-0.004-1.707-0.758-3.343-2.096-4.551-1.339-1.207-3.154-1.887-5.047-1.891-1.894 0.003-3.71 0.683-5.049 1.89s-2.093 2.844-2.097 4.551v9.414s14.287-1.434 14.289-9.412v-0.002zM7.315 23.517c0.003 1.188 0.528 2.326 1.459 3.166s2.194 1.314 3.511 1.317c1.317-0.003 2.579-0.477 3.51-1.317s1.457-1.977 1.461-3.166v-6.549s-9.942 0.999-9.942 6.549zM12.286 24.69c-0.257 0-0.509-0.069-0.723-0.198-0.209-0.125-0.373-0.305-0.476-0.52l-0.003-0.007c-0.063-0.132-0.099-0.286-0.099-0.449 0-0.081 0.009-0.16 0.026-0.236l-0.001 0.007c0.056-0.241 0.182-0.446 0.355-0.6l0.001-0.001c0.181-0.161 0.408-0.275 0.658-0.32l0.008-0.001c0.253-0.046 0.514-0.022 0.752 0.067s0.442 0.239 0.585 0.432c0.143 0.193 0.219 0.42 0.219 0.652 0 0.001 0 0.002 0 0.003 0 0.162-0.036 0.316-0.101 0.454l0.003-0.007c-0.065 0.143-0.161 0.273-0.282 0.382-0.119 0.107-0.26 0.194-0.414 0.252l-0.009 0.003c-0.148 0.057-0.319 0.090-0.498 0.090-0 0-0.001 0-0.001 0h0v-0.005zM21.377 22.58v2.438h-0.502v-2.438h0.503zM22.349 23.621v0.392h-1.109v-0.392h1.109zM22.466 22.58v0.393h-1.226v-0.393h1.226zM24.759 23.742v0.115c0 0.186-0.025 0.352-0.075 0.499-0.048 0.146-0.121 0.271-0.214 0.379l0.001-0.001c-0.091 0.103-0.201 0.181-0.328 0.236-0.12 0.052-0.259 0.082-0.405 0.082-0.005 0-0.010-0-0.015-0h0.001c-0.153 0-0.293-0.027-0.421-0.082-0.129-0.057-0.238-0.136-0.327-0.235l-0.001-0.001c-0.093-0.106-0.167-0.232-0.214-0.369l-0.002-0.008c-0.048-0.142-0.076-0.306-0.076-0.477 0-0.008 0-0.015 0-0.023v0.001-0.115c0-0.186 0.025-0.353 0.075-0.499 0.048-0.145 0.121-0.271 0.214-0.378l-0.001 0.001c0.093-0.104 0.202-0.183 0.328-0.238 0.127-0.055 0.267-0.082 0.421-0.082 0.154 0 0.294 0.027 0.42 0.082 0.127 0.055 0.237 0.134 0.328 0.238 0.093 0.104 0.165 0.229 0.214 0.377 0.051 0.146 0.077 0.312 0.077 0.498zM24.251 23.857v-0.119c0-0.129-0.011-0.243-0.035-0.341-0.021-0.094-0.057-0.177-0.106-0.251l0.002 0.003c-0.042-0.064-0.099-0.115-0.165-0.15l-0.002-0.001c-0.063-0.032-0.137-0.052-0.216-0.052-0.003 0-0.007 0-0.010 0h0c-0.085 0-0.16 0.017-0.226 0.051-0.068 0.037-0.124 0.088-0.165 0.149l-0.001 0.002c-0.046 0.071-0.081 0.154-0.101 0.243l-0.001 0.005c-0.023 0.097-0.036 0.208-0.036 0.323 0 0.007 0 0.013 0 0.020v-0.001 0.119c0 0.129 0.011 0.242 0.035 0.342 0.023 0.098 0.058 0.181 0.103 0.25 0.046 0.067 0.102 0.118 0.167 0.152s0.141 0.052 0.226 0.052c0.085 0 0.16-0.017 0.226-0.051 0.068-0.037 0.124-0.088 0.165-0.151l0.001-0.002c0.046-0.072 0.081-0.155 0.101-0.244l0.001-0.005c0.023-0.099 0.035-0.213 0.035-0.342zM26.39 24.379c0-0.002 0-0.003 0-0.005 0-0.040-0.007-0.079-0.021-0.114l0.001 0.002c-0.015-0.039-0.039-0.072-0.070-0.097l-0-0c-0.042-0.034-0.090-0.064-0.141-0.087l-0.004-0.002c-0.065-0.030-0.146-0.061-0.228-0.086l-0.015-0.004c-0.129-0.041-0.233-0.082-0.334-0.128l0.019 0.008c-0.1-0.045-0.186-0.097-0.264-0.158l0.003 0.002c-0.072-0.057-0.131-0.127-0.175-0.206l-0.002-0.004c-0.040-0.077-0.064-0.168-0.064-0.264 0-0.004 0-0.008 0-0.012v0.001c-0-0.002-0-0.005-0-0.008 0-0.098 0.025-0.191 0.068-0.271l-0.002 0.003c0.045-0.084 0.107-0.155 0.187-0.214 0.081-0.061 0.175-0.107 0.285-0.139 0.111-0.032 0.232-0.049 0.363-0.049 0.18 0 0.337 0.033 0.47 0.097s0.238 0.154 0.311 0.266c0.075 0.113 0.113 0.242 0.113 0.387h-0.499c0-0.002 0-0.005 0-0.008 0-0.066-0.017-0.128-0.047-0.182l0.001 0.002c-0.031-0.056-0.076-0.1-0.132-0.128l-0.002-0.001c-0.060-0.030-0.132-0.047-0.207-0.047-0.006 0-0.012 0-0.019 0l0.001-0c-0.005-0-0.011-0-0.017-0-0.072 0-0.141 0.015-0.204 0.042l0.003-0.001c-0.054 0.022-0.099 0.059-0.13 0.105l-0.001 0.001c-0.027 0.040-0.043 0.090-0.043 0.144 0 0.001 0 0.002 0 0.004v-0c0 0.041 0.010 0.079 0.030 0.112 0.025 0.037 0.056 0.069 0.093 0.093l0.001 0.001c0.041 0.029 0.091 0.057 0.152 0.082s0.13 0.051 0.21 0.075c0.133 0.040 0.249 0.085 0.35 0.135 0.102 0.050 0.186 0.106 0.254 0.169s0.12 0.133 0.154 0.213 0.051 0.169 0.051 0.27c0 0.106-0.021 0.201-0.062 0.285s-0.101 0.154-0.179 0.213c-0.078 0.058-0.171 0.102-0.28 0.132s-0.229 0.046-0.363 0.046c-0.121 0-0.24-0.016-0.357-0.047-0.122-0.033-0.228-0.083-0.324-0.148l0.004 0.002c-0.094-0.064-0.17-0.147-0.226-0.244l-0.002-0.004c-0.057-0.101-0.086-0.219-0.086-0.357h0.504c0 0.076 0.011 0.14 0.035 0.193 0.022 0.051 0.056 0.094 0.098 0.126l0.001 0.001c0.044 0.032 0.095 0.056 0.151 0.070l0.003 0.001c0.060 0.015 0.126 0.022 0.198 0.022 0.006 0 0.012 0 0.019 0 0.070 0 0.138-0.014 0.199-0.038l-0.004 0.001c0.099-0.040 0.167-0.135 0.167-0.246 0-0.001 0-0.003-0-0.004v0zM28.323 22.58v2.438h-0.5v-2.438h0.5zM29.073 22.58v0.393h-1.989v-0.393h1.989zM30.995 24.626v0.392h-1.297v-0.392h1.297zM29.862 22.58v2.438h-0.503v-2.438h0.503zM30.826 23.573v0.382h-1.128v-0.382h1.128zM30.993 22.58v0.393h-1.295v-0.393h1.295zM31.288 22.58h0.909c0.187 0 0.347 0.028 0.481 0.083 0.135 0.056 0.239 0.139 0.311 0.248s0.109 0.244 0.109 0.403c0 0.131-0.022 0.243-0.066 0.337s-0.107 0.171-0.185 0.232l-0.001 0.001c-0.080 0.061-0.173 0.111-0.273 0.145l-0.007 0.002-0.159 0.084h-0.79l-0.003-0.392h0.588c0.005 0 0.010 0 0.016 0 0.074 0 0.144-0.017 0.206-0.048l-0.003 0.001c0.056-0.030 0.101-0.075 0.13-0.129l0.001-0.002c0.029-0.054 0.045-0.118 0.045-0.185 0-0.003-0-0.006-0-0.009v0c0-0.003 0-0.007 0-0.011 0-0.069-0.016-0.135-0.045-0.194l0.001 0.003c-0.029-0.057-0.075-0.102-0.131-0.13l-0.002-0.001c-0.061-0.029-0.132-0.046-0.207-0.046-0.006 0-0.011 0-0.017 0l0.001-0h-0.406v2.045h-0.503v-2.438zM32.651 25.018l-0.556-1.087 0.531-0.003 0.562 1.067v0.023h-0.537zM35.287 24.149h-0.621v-0.392h0.621c0.006 0 0.013 0 0.020 0 0.078 0 0.151-0.017 0.217-0.049l-0.003 0.001c0.058-0.030 0.103-0.076 0.132-0.133l0.001-0.002c0.026-0.058 0.041-0.126 0.041-0.197s-0.015-0.139-0.043-0.201l0.001 0.003c-0.029-0.063-0.074-0.115-0.131-0.15l-0.001-0.001c-0.062-0.036-0.137-0.058-0.216-0.058-0.006 0-0.013 0-0.019 0l0.001-0h-0.447v2.045h-0.503v-2.438h0.95c0.191 0 0.354 0.034 0.49 0.104 0.137 0.068 0.242 0.162 0.315 0.283s0.109 0.258 0.109 0.413c0 0.158-0.036 0.294-0.109 0.409s-0.177 0.204-0.314 0.266c-0.137 0.063-0.3 0.094-0.491 0.094zM38.183 24.626v0.392h-1.297v-0.392h1.297zM37.050 22.58v2.438h-0.502v-2.438h0.502zM38.014 23.573v0.382h-1.128v-0.382h1.128zM38.182 22.58v0.393h-1.295v-0.393h1.295zM39.6 22.58v2.438h-0.501v-2.438h0.501zM40.35 22.58v0.393h-1.989v-0.393h1.989zM42.272 24.626v0.392h-1.297v-0.392h1.297zM41.138 22.58v2.438h-0.502v-2.438h0.503zM42.103 23.573v0.382h-1.129v-0.382h1.129zM42.27 22.58v0.393h-1.296v-0.393h1.296zM42.565 22.58h0.909c0.186 0 0.347 0.028 0.48 0.083 0.135 0.056 0.239 0.139 0.312 0.248s0.109 0.244 0.109 0.403c0 0.131-0.022 0.243-0.067 0.337s-0.107 0.171-0.184 0.232l-0.001 0.001c-0.080 0.061-0.173 0.111-0.273 0.145l-0.007 0.002-0.159 0.084h-0.79l-0.003-0.392h0.587c0.005 0 0.011 0 0.017 0 0.074 0 0.144-0.017 0.206-0.048l-0.003 0.001c0.056-0.030 0.101-0.075 0.129-0.129l0.001-0.002c0.029-0.054 0.046-0.118 0.046-0.186 0-0.003-0-0.006-0-0.008v0c0-0.003 0-0.007 0-0.010 0-0.070-0.016-0.136-0.045-0.195l0.001 0.003c-0.029-0.057-0.075-0.102-0.13-0.13l-0.002-0.001c-0.061-0.029-0.132-0.046-0.207-0.046-0.006 0-0.011 0-0.017 0l0.001-0h-0.407v2.045h-0.502v-2.438zM43.927 25.018l-0.556-1.087 0.531-0.003 0.562 1.067v0.023h-0.538zM46.030 24.379c0-0.002 0-0.003 0-0.005 0-0.040-0.007-0.079-0.021-0.114l0.001 0.002c-0.015-0.039-0.039-0.072-0.070-0.097l-0-0c-0.042-0.034-0.090-0.064-0.141-0.087l-0.004-0.002c-0.063-0.029-0.143-0.059-0.243-0.090-0.128-0.041-0.232-0.082-0.334-0.128l0.019 0.008c-0.1-0.045-0.186-0.097-0.265-0.158l0.003 0.002c-0.072-0.057-0.131-0.127-0.175-0.206l-0.002-0.004c-0.040-0.077-0.064-0.168-0.064-0.264 0-0.004 0-0.008 0-0.012v0.001c-0-0.002-0-0.005-0-0.008 0-0.098 0.025-0.191 0.068-0.271l-0.002 0.003c0.045-0.084 0.107-0.155 0.188-0.214 0.080-0.061 0.175-0.107 0.285-0.139s0.231-0.049 0.363-0.049c0.18 0 0.337 0.033 0.47 0.097 0.134 0.065 0.238 0.154 0.311 0.266 0.075 0.113 0.113 0.242 0.113 0.387h-0.499c0-0.002 0-0.005 0-0.008 0-0.066-0.017-0.128-0.047-0.182l0.001 0.002c-0.031-0.056-0.076-0.1-0.132-0.128l-0.002-0.001c-0.060-0.030-0.132-0.047-0.207-0.047-0.006 0-0.012 0-0.018 0l0.001-0c-0.005-0-0.011-0-0.017-0-0.072 0-0.141 0.015-0.204 0.042l0.003-0.001c-0.054 0.022-0.099 0.059-0.13 0.105l-0.001 0.001c-0.027 0.040-0.043 0.090-0.043 0.144 0 0.001 0 0.002 0 0.004v-0c0 0.041 0.010 0.079 0.030 0.112 0.025 0.037 0.056 0.069 0.093 0.093l0.001 0.001c0.041 0.029 0.092 0.057 0.152 0.082s0.13 0.051 0.21 0.075c0.133 0.040 0.249 0.085 0.35 0.135 0.097 0.047 0.181 0.103 0.255 0.17l-0.001-0.001c0.069 0.063 0.12 0.133 0.154 0.213s0.051 0.169 0.051 0.27c0 0.106-0.020 0.201-0.062 0.285s-0.101 0.154-0.179 0.213c-0.078 0.058-0.171 0.102-0.28 0.132s-0.229 0.046-0.363 0.046c-0.121 0-0.24-0.016-0.357-0.047-0.122-0.033-0.228-0.083-0.324-0.148l0.004 0.002c-0.094-0.064-0.17-0.147-0.226-0.244l-0.002-0.004c-0.057-0.101-0.086-0.219-0.086-0.357h0.504c0 0.076 0.011 0.14 0.035 0.193 0.022 0.051 0.056 0.094 0.098 0.126l0.001 0.001c0.044 0.032 0.095 0.056 0.151 0.070l0.003 0.001c0.060 0.015 0.126 0.022 0.198 0.022 0.006 0 0.012 0 0.019 0 0.070 0 0.138-0.014 0.199-0.038l-0.004 0.001c0.099-0.040 0.167-0.135 0.167-0.246 0-0.001 0-0.003-0-0.004v0z"></path>
</symbol>
<symbol id="icon-Logo5" viewBox="0 0 63 32">
<path d="M16.36 24.918c0.14 0.157 0.215 0.352 0.211 0.553 0.007 0.131-0.019 0.262-0.075 0.383s-0.143 0.229-0.252 0.315c-0.239 0.162-0.534 0.259-0.852 0.259-0.035 0-0.070-0.001-0.104-0.003l0.005 0h-1.671v-3.505h1.637c0.028-0.002 0.062-0.003 0.095-0.003 0.301 0 0.582 0.088 0.818 0.24l-0.006-0.004c0.106 0.080 0.19 0.18 0.245 0.294s0.080 0.238 0.073 0.362c0.010 0.193-0.058 0.383-0.19 0.536-0.129 0.138-0.3 0.236-0.493 0.273l-0.006 0.001c0.222 0.036 0.422 0.142 0.565 0.299zM14.399 24.389h0.699c0.159 0.010 0.317-0.031 0.446-0.117 0.051-0.041 0.091-0.093 0.118-0.153l0.001-0.003c0.020-0.045 0.032-0.098 0.032-0.153 0-0.012-0.001-0.024-0.002-0.035l0 0.002c0.001-0.009 0.001-0.019 0.001-0.030 0-0.056-0.012-0.11-0.034-0.159l0.001 0.003c-0.028-0.062-0.067-0.114-0.116-0.155l-0.001-0.001c-0.113-0.075-0.252-0.12-0.402-0.12-0.020 0-0.039 0.001-0.059 0.002l0.003-0h-0.689v0.919zM15.613 25.733c0.055-0.042 0.098-0.096 0.128-0.157l0.001-0.003c0.024-0.049 0.038-0.107 0.038-0.168 0-0.010-0-0.019-0.001-0.029l0 0.001c0-0.007 0.001-0.016 0.001-0.024 0-0.063-0.014-0.122-0.040-0.175l0.001 0.002c-0.031-0.065-0.076-0.119-0.13-0.162l-0.001-0.001c-0.121-0.080-0.269-0.128-0.428-0.128-0.017 0-0.033 0.001-0.050 0.002l0.002-0h-0.733v0.963h0.743c0.167 0.009 0.333-0.034 0.47-0.122zM19.707 26.425l-0.911-1.37h-0.343v1.37h-0.783v-3.505h1.483c0.032-0.002 0.068-0.004 0.106-0.004 0.348 0 0.67 0.113 0.931 0.305l-0.004-0.003c0.207 0.19 0.333 0.441 0.353 0.706 0.002 0.022 0.003 0.047 0.003 0.073 0 0.256-0.093 0.491-0.246 0.672l0.001-0.002c-0.183 0.189-0.433 0.314-0.707 0.356l0.97 1.4h-0.852zM18.454 24.577h0.641c0.445 0 0.667-0.177 0.667-0.53 0.001-0.009 0.001-0.020 0.001-0.030 0-0.066-0.013-0.128-0.038-0.185l0.001 0.003c-0.030-0.071-0.074-0.132-0.128-0.181l-0-0c-0.122-0.090-0.275-0.144-0.441-0.144-0.022 0-0.044 0.001-0.065 0.003l0.003-0h-0.648l0.007 1.066zM23.989 25.719h-1.561l-0.275 0.705h-0.822l1.434-3.465h0.887l1.429 3.465h-0.822l-0.27-0.705zM23.779 25.188l-0.57-1.478-0.57 1.479h1.141zM29.349 26.425h-0.778l-1.743-2.383v2.383h-0.777v-3.505h0.776l1.744 2.397v-2.397h0.778v3.505zM33.787 25.586c-0.169 0.27-0.409 0.482-0.693 0.614l-0.010 0.004c-0.339 0.154-0.714 0.23-1.094 0.221h-1.384v-3.505h1.384c0.019-0 0.041-0.001 0.064-0.001 0.373 0 0.727 0.080 1.046 0.223l-0.016-0.006c0.297 0.135 0.543 0.349 0.703 0.611 0.16 0.285 0.244 0.6 0.244 0.919-0.001 0.338-0.091 0.655-0.248 0.929l0.005-0.009zM32.897 25.502c0.211-0.216 0.341-0.51 0.344-0.835v-0.001c-0.003-0.326-0.133-0.621-0.344-0.837l0 0c-0.242-0.187-0.549-0.3-0.883-0.3-0.032 0-0.063 0.001-0.094 0.003l0.004-0h-0.54v2.269h0.54c0.027 0.002 0.058 0.003 0.089 0.003 0.334 0 0.642-0.113 0.887-0.303l-0.003 0.002zM24.475 3.429s10.038 3.411 9.825 8.349v8.351s-10.030-3.413-9.821-8.35l-0.005-8.349zM43.244 18.173c1.895-1.175 4.089-1.902 6.377-2.116v-2.614c-2.637 0.915-4.874 2.575-6.377 4.73z"></path>
<path d="M42.105 18.961c1.552-2.813 4.242-4.983 7.517-6.065v-7.532s-14.296 4.859-13.994 11.89v11.889s0.637-0.217 1.639-0.625c0-0.38 0-0.763 0.046-1.149 0.295-3.264 2.019-6.289 4.791-8.409z"></path>
<path d="M40.745 23.377c0.084-0.899 0.261-1.726 0.523-2.513l-0.023 0.079c-1.727 1.831-2.771 4.103-2.99 6.497-0.021 0.226-0.032 0.451-0.038 0.685 1.198-0.515 2.101-0.952 2.986-1.418l-0.237 0.114c-0.171-0.73-0.269-1.569-0.269-2.43 0-0.357 0.017-0.709 0.050-1.057l-0.003 0.044zM41.314 23.42c-0.028 0.289-0.044 0.624-0.044 0.964 0 0.763 0.080 1.507 0.233 2.224l-0.012-0.070c3.905-2.104 8.294-5.355 8.125-9.284v-0.342c-2.79 0.281-5.401 1.379-7.431 3.126-0.448 0.989-0.757 2.136-0.868 3.341l-0.003 0.042z"></path>
</symbol>
<symbol id="icon-Logo6" viewBox="0 0 63 32">
<path d="M31.653 15.244c-0.218-0.282-0.35-0.64-0.35-1.029 0-0.039 0.001-0.077 0.004-0.115l-0 0.005v-1.65c0-0.506 0.114-0.891 0.344-1.154s0.624-0.394 1.183-0.393c0.526 0 0.898 0.112 1.119 0.335 0.24 0.286 0.358 0.635 0.331 0.987v0.388h-0.941v-0.393c0.003-0.129-0.006-0.257-0.027-0.385-0.016-0.093-0.065-0.172-0.134-0.228l-0.001-0.001c-0.084-0.056-0.188-0.090-0.3-0.090-0.014 0-0.029 0.001-0.043 0.002l0.002-0c-0.012-0.001-0.026-0.001-0.040-0.001-0.118 0-0.228 0.036-0.32 0.097l0.002-0.001c-0.077 0.062-0.133 0.149-0.155 0.248l-0.001 0.003c-0.024 0.113-0.037 0.243-0.037 0.376 0 0.011 0 0.023 0 0.034l-0-0.002v2.003c-0.002 0.022-0.003 0.048-0.003 0.074 0 0.179 0.046 0.347 0.127 0.493l-0.003-0.005c0.049 0.060 0.112 0.107 0.184 0.136l0.003 0.001c0.075 0.030 0.16 0.041 0.242 0.031 0.12 0.009 0.24-0.024 0.333-0.090 0.072-0.060 0.123-0.145 0.14-0.241l0-0.002c0.022-0.133 0.032-0.267 0.029-0.402v-0.406h0.94v0.371c0.002 0.029 0.003 0.063 0.003 0.097 0 0.357-0.124 0.685-0.331 0.943l0.002-0.003c-0.216 0.246-0.583 0.368-1.125 0.368s-0.949-0.131-1.181-0.403zM35.566 15.261c-0.238-0.257-0.357-0.631-0.357-1.126v-1.736c0-0.49 0.119-0.862 0.356-1.113s0.634-0.377 1.191-0.376c0.553 0 0.947 0.126 1.185 0.376 0.238 0.251 0.358 0.623 0.358 1.113v1.736c0 0.49-0.121 0.866-0.362 1.125s-0.634 0.388-1.181 0.388-0.951-0.131-1.191-0.386zM37.194 14.844c0.085-0.161 0.123-0.337 0.113-0.514v-2.126c0.001-0.017 0.002-0.036 0.002-0.056 0-0.164-0.042-0.318-0.115-0.452l0.002 0.005c-0.050-0.062-0.114-0.109-0.188-0.138l-0.003-0.001c-0.054-0.021-0.117-0.033-0.183-0.033-0.023 0-0.046 0.002-0.068 0.004l0.003-0c-0.019-0.002-0.041-0.004-0.064-0.004-0.066 0-0.13 0.012-0.188 0.035l0.004-0.001c-0.078 0.029-0.143 0.076-0.193 0.137l-0.001 0.001c-0.086 0.158-0.124 0.33-0.113 0.504v2.135c-0.012 0.177 0.027 0.353 0.113 0.514 0.055 0.054 0.122 0.097 0.198 0.127 0.072 0.029 0.155 0.046 0.241 0.046s0.17-0.017 0.246-0.047l-0.004 0.002c0.076-0.030 0.143-0.073 0.198-0.127v-0.010zM39.429 10.96h1.012l0.761 3.203 0.778-3.203h0.985l0.099 4.623h-0.727l-0.078-3.213-0.751 3.213h-0.583l-0.778-3.225-0.072 3.225h-0.736l0.091-4.623zM44.198 10.96h1.576c0.908 0 1.362 0.437 1.362 1.313 0 0.838-0.478 1.257-1.434 1.255h-0.537v2.055h-0.973l0.006-4.623zM45.544 12.935c0.096 0.010 0.194 0.003 0.286-0.022 0.093-0.025 0.178-0.067 0.249-0.123 0.090-0.122 0.145-0.276 0.145-0.443 0-0.028-0.002-0.056-0.005-0.083l0 0.003c0.001-0.015 0.001-0.033 0.001-0.051 0-0.131-0.017-0.258-0.050-0.379l0.002 0.010c-0.016-0.049-0.040-0.091-0.072-0.127l0 0c-0.034-0.038-0.075-0.069-0.121-0.092l-0.002-0.001c-0.113-0.048-0.245-0.076-0.383-0.076-0.018 0-0.036 0-0.053 0.001l0.002-0h-0.377v1.382h0.377zM48.538 10.96h1.045l1.072 4.623h-0.907l-0.212-1.066h-0.931l-0.218 1.066h-0.92l1.071-4.623zM49.431 13.981l-0.364-1.941-0.363 1.941h0.727zM51.521 10.96h0.681l1.303 2.637v-2.638h0.807v4.623h-0.647l-1.311-2.753v2.753h-0.834l0.002-4.623zM56.203 13.82l-1.083-2.854h0.913l0.661 1.833 0.621-1.833h0.893l-1.070 2.854v1.763h-0.934v-1.763zM33.155 17.604v0.242h-0.794v1.879h-0.333v-1.879h-0.798v-0.242h1.924zM35.643 19.725h-0.257c-0.002 0-0.004 0-0.007 0-0.024 0-0.047-0.008-0.065-0.020l0 0c-0.019-0.012-0.034-0.029-0.043-0.048l-0-0.001-0.23-0.503h-1.101l-0.23 0.503c-0.007 0.022-0.019 0.042-0.035 0.057v0c-0.019 0.013-0.041 0.020-0.066 0.020-0.002 0-0.004-0-0.006-0h-0.257l0.973-2.12h0.338l0.985 2.112zM34.032 18.937h0.919l-0.389-0.863c-0.025-0.054-0.049-0.121-0.069-0.189l-0.003-0.011c-0.014 0.040-0.025 0.079-0.037 0.113l-0.035 0.089-0.385 0.861zM37.32 19.517c0.061 0.002 0.122 0.002 0.183 0 0.053-0.005 0.105-0.013 0.156-0.026 0.047-0.010 0.094-0.023 0.14-0.038 0.043-0.015 0.086-0.034 0.13-0.052v-0.477h-0.389c-0.001 0-0.003 0-0.005 0-0.008 0-0.017-0.001-0.024-0.004l0.001 0c-0.009-0.003-0.018-0.007-0.025-0.013l0 0c-0.006-0.005-0.011-0.010-0.015-0.017l-0-0c-0.003-0.006-0.005-0.012-0.005-0.020 0-0.001 0-0.002 0-0.002v0-0.163h0.755v0.813c-0.118 0.074-0.255 0.133-0.4 0.171l-0.010 0.002c-0.080 0.020-0.161 0.035-0.243 0.043-0.085 0.009-0.184 0.014-0.284 0.014-0 0-0 0-0 0v0c-0.004 0-0.008 0-0.013 0-0.171 0-0.335-0.029-0.488-0.082l0.010 0.003c-0.15-0.052-0.279-0.128-0.39-0.223l0.002 0.001c-0.104-0.092-0.189-0.204-0.249-0.329l-0.003-0.006c-0.057-0.126-0.090-0.272-0.090-0.427 0-0.005 0-0.009 0-0.014v0.001c-0-0.004-0-0.008-0-0.012 0-0.156 0.032-0.304 0.091-0.438l-0.003 0.007c0.056-0.126 0.141-0.24 0.251-0.336 0.111-0.095 0.243-0.17 0.389-0.22 0.167-0.054 0.344-0.081 0.522-0.079 0.091 0 0.181 0.006 0.271 0.019 0.079 0.011 0.157 0.029 0.231 0.054 0.068 0.022 0.133 0.050 0.194 0.084 0.060 0.033 0.116 0.070 0.169 0.111l-0.093 0.131c-0.008 0.012-0.018 0.022-0.031 0.028l-0 0c-0.013 0.007-0.028 0.011-0.044 0.011h-0c-0.022-0.001-0.043-0.007-0.061-0.017l0.001 0c-0.039-0.018-0.071-0.035-0.101-0.053l0.006 0.003c-0.036-0.020-0.080-0.040-0.124-0.055l-0.006-0.002c-0.050-0.018-0.11-0.034-0.172-0.046l-0.008-0.001c-0.071-0.012-0.154-0.019-0.237-0.019-0.003 0-0.007 0-0.010 0h0.001c-0.003-0-0.008-0-0.012-0-0.13 0-0.255 0.022-0.372 0.061l0.008-0.002c-0.109 0.038-0.206 0.095-0.286 0.168-0.077 0.072-0.139 0.16-0.179 0.259l-0.002 0.005c-0.041 0.105-0.065 0.226-0.065 0.353s0.024 0.249 0.068 0.36l-0.002-0.007c0.042 0.1 0.109 0.191 0.194 0.267 0.080 0.073 0.177 0.13 0.284 0.168 0.124 0.037 0.255 0.051 0.386 0.042zM40.421 19.482h1.063v0.242h-1.387v-2.121h0.333l-0.008 1.878zM42.589 19.725h-0.333v-2.121h0.333v2.12zM43.826 17.614c0.020 0.010 0.037 0.023 0.051 0.038l1.422 1.598c-0.001-0.011-0.001-0.024-0.001-0.038s0.001-0.026 0.002-0.039l-0 0.002v-1.58h0.29v2.129h-0.167c-0.004 0-0.008 0-0.012 0-0.022 0-0.042-0.004-0.061-0.012l0.001 0c-0.020-0.011-0.038-0.024-0.052-0.040l-0-0-1.42-1.597v1.649h-0.278v-2.121h0.173c0.019 0 0.037 0.003 0.054 0.010zM48.038 17.604v0.233h-1.179v0.701h0.955v0.225h-0.955v0.723h1.179v0.234h-1.522v-2.115h1.522zM13.176 4.51l14.773 3.619v12.683l-14.771-3.618v-12.685zM12.229 3.429v14.383l16.666 4.085v-14.382l-16.666-4.086z"></path>
<path d="M21.161 28.571l-16.667-4.088v-14.381l16.667 4.086v14.383z"></path>
<path d="M12.505 4.347l14.579 3.574-6.2 5.351-14.582-3.575 6.202-5.35zM12.229 3.429l-7.735 6.674 16.667 4.086 7.734-6.674-16.666-4.086zM22.098 27.762l6.795-5.865-6.795-1.667v7.532z"></path>
</symbol>
<symbol id="icon-Logo2" viewBox="0 0 63 32">
<path d="M29.779 2.82h-0.078c-0.12-0.007-0.24-0.010-0.36-0.013h-0.26c-0.227 0-0.458 0.006-0.689 0.017-0.008-0.001-0.017-0.001-0.026-0.001s-0.018 0-0.027 0.001l0.001-0c-2.206 0.129-4.255 0.68-6.106 1.575l0.096-0.042-0.247 0.119v12.653l0.578-0.197c0.507-0.174 1.048-0.331 1.607-0.477 1.382-0.37 2.973-0.592 4.612-0.614l0.013-0v1.662c-0.207 0.001-0.407 0.007-0.609 0.017h-0.048c-1.299 0.073-2.516 0.268-3.688 0.575l0.129-0.029c-1.61 0.409-3.022 0.975-4.333 1.7l0.093-0.047v-16.227c1.28-0.761 2.762-1.382 4.33-1.784l0.118-0.026c1.257-0.338 2.7-0.535 4.189-0.541h0.247c0.292 0.007 0.577 0.021 0.844 0.041 0.705 0.050 1.404 0.161 2.089 0.333v1.636c-0.583-0.143-1.275-0.251-1.982-0.303l-0.042-0.002-0.041-0.003c-0.141-0.012-0.282-0.024-0.414-0.024zM32.659 4.493c0.363 0.027 0.738 0.040 1.119 0.040 1.568-0.006 3.086-0.211 4.533-0.593l-0.125 0.028c1.61-0.411 3.020-0.977 4.331-1.701l-0.094 0.047v15.937c-1.281 0.761-2.763 1.381-4.332 1.783l-0.118 0.026c-1.256 0.337-2.7 0.533-4.188 0.539h-0.004c-0.031 0-0.067 0-0.103 0-1.093 0-2.153-0.137-3.166-0.394l0.089 0.019v-16.041c0.246 0.057 0.499 0.109 0.756 0.153 0.422 0.071 0.867 0.123 1.301 0.155zM40.77 4.616l-0.578 0.194c-0.531 0.179-1.069 0.339-1.607 0.481-1.44 0.385-3.094 0.61-4.8 0.616h-0.004c-0.377 0-0.725-0.010-1.060-0.031l-0.461-0.031v13.015l0.396 0.035c0.367 0.032 0.746 0.048 1.127 0.048 1.347-0.006 2.649-0.184 3.89-0.514l-0.107 0.024c1.134-0.288 2.118-0.651 3.050-1.104l-0.094 0.041 0.247-0.119v-12.657z"></path>
<path d="M21.564 25.264c-0.155-0.161-0.373-0.261-0.614-0.261-0.010 0-0.021 0-0.031 0.001l0.002-0c-0.004-0-0.008-0-0.013-0-0.129 0-0.253 0.026-0.365 0.072l0.006-0.002c-0.22 0.088-0.39 0.26-0.473 0.475l-0.002 0.006c-0.046 0.114-0.068 0.236-0.066 0.359v2.168c-0.006 0.153 0.024 0.305 0.085 0.445 0.051 0.111 0.125 0.21 0.217 0.291 0.086 0.073 0.189 0.126 0.297 0.154 0.106 0.029 0.215 0.045 0.324 0.045 0.121 0.001 0.24-0.025 0.35-0.075 0.326-0.144 0.549-0.465 0.549-0.837v0-0.243h-0.567v0.193c0 0.004 0 0.008 0 0.012 0 0.065-0.012 0.128-0.035 0.185l0.001-0.003c-0.019 0.048-0.047 0.088-0.082 0.122l-0 0c-0.065 0.050-0.147 0.081-0.237 0.083h-0c-0.010 0.001-0.022 0.002-0.033 0.002-0.095 0-0.179-0.046-0.232-0.117l-0.001-0.001c-0.048-0.076-0.076-0.169-0.076-0.269 0-0.008 0-0.016 0.001-0.023l-0 0.001v-2.021c-0.003-0.112 0.021-0.223 0.070-0.324 0.052-0.080 0.142-0.133 0.243-0.133 0.012 0 0.024 0.001 0.035 0.002l-0.001-0c0.003-0 0.007-0 0.011-0 0.099 0 0.187 0.048 0.242 0.122l0.001 0.001c0.059 0.077 0.094 0.174 0.094 0.279 0 0.004-0 0.008-0 0.011v-0.001 0.187h0.561v-0.221c0-0.003 0-0.006 0-0.010 0-0.133-0.025-0.26-0.072-0.376l0.002 0.007c-0.044-0.119-0.109-0.22-0.19-0.306l0 0zM24.931 25.24c-0.173-0.147-0.398-0.237-0.645-0.239h-0c-0.115 0-0.23 0.021-0.338 0.061-0.234 0.084-0.418 0.256-0.517 0.475l-0.002 0.006c-0.057 0.132-0.085 0.275-0.082 0.42v2.079c-0.004 0.146 0.024 0.291 0.082 0.426 0.051 0.112 0.126 0.211 0.22 0.291 0.086 0.080 0.189 0.143 0.299 0.183 0.109 0.040 0.223 0.061 0.338 0.061 0.248-0 0.474-0.093 0.646-0.245l-0.001 0.001c0.090-0.081 0.163-0.18 0.214-0.291 0.058-0.134 0.086-0.279 0.082-0.426v-2.079c0-0.006 0-0.012 0-0.019 0-0.145-0.030-0.282-0.085-0.407l0.003 0.006c-0.053-0.119-0.125-0.22-0.213-0.304l-0-0zM24.666 28.042c0.001 0.010 0.001 0.021 0.001 0.032 0 0.106-0.044 0.201-0.114 0.269l-0 0c-0.072 0.060-0.165 0.097-0.267 0.097s-0.195-0.037-0.267-0.098l0.001 0c-0.070-0.068-0.114-0.163-0.114-0.268 0-0.012 0.001-0.023 0.002-0.034l-0 0.001v-2.079c-0.001-0.009-0.001-0.020-0.001-0.031 0-0.106 0.044-0.201 0.114-0.269l0-0c0.072-0.060 0.165-0.097 0.267-0.097s0.195 0.037 0.267 0.097l-0.001-0.001c0.071 0.068 0.115 0.163 0.115 0.268 0 0.011-0 0.022-0.002 0.034l0-0.001v2.080zM29.353 28.971v-3.937h-0.545l-0.715 2.084h-0.010l-0.721-2.083h-0.539v3.936h0.563v-2.394h0.010l0.551 1.693h0.28l0.555-1.693h0.010v2.394h0.562zM32.547 25.311c-0.087-0.097-0.196-0.171-0.318-0.215-0.115-0.039-0.248-0.061-0.386-0.061-0.007 0-0.015 0-0.022 0h-0.834v3.937h0.561v-1.538h0.289c0.175 0.008 0.349-0.029 0.506-0.107 0.128-0.073 0.233-0.175 0.305-0.297l0.002-0.004c0.065-0.105 0.109-0.221 0.129-0.343 0.020-0.125 0.031-0.269 0.031-0.416 0-0.011-0-0.022-0-0.033v0.002c0.006-0.189-0.013-0.378-0.055-0.562-0.040-0.142-0.111-0.264-0.206-0.362l0 0zM32.258 26.511c-0.003 0.075-0.022 0.145-0.053 0.208l0.001-0.003c-0.032 0.060-0.082 0.108-0.143 0.137l-0.002 0.001c-0.069 0.032-0.15 0.050-0.235 0.050-0.010 0-0.020-0-0.030-0.001l0.001 0h-0.256v-1.338h0.289c0.008-0 0.017-0.001 0.027-0.001 0.082 0 0.16 0.018 0.229 0.051l-0.003-0.001c0.058 0.034 0.103 0.083 0.131 0.143l0.001 0.002c0.030 0.069 0.047 0.144 0.049 0.219v0.262c0 0.091 0.006 0.186 0 0.27h-0.006zM35.204 25.034h-0.459l-0.867 3.937h0.561l0.165-0.846h0.765l0.165 0.846h0.561l-0.889-3.937zM34.687 27.589l0.276-1.427h0.010l0.274 1.427h-0.561zM38.829 27.406h-0.010l-0.847-2.371h-0.539v3.937h0.561v-2.367h0.011l0.857 2.367h0.528v-3.936h-0.561v2.371zM42.255 25.034l-0.451 1.566h-0.011l-0.451-1.566h-0.594l0.771 2.273v1.663h0.561v-1.663l0.771-2.273h-0.594zM20 30.082h0.27v0.759h0.183v-0.759h0.269v-0.155h-0.722v0.155zM22.273 29.927l-0.354 0.914h0.195l0.075-0.208h0.364l0.078 0.208h0.199l-0.363-0.914h-0.195zM22.244 30.479l0.124-0.339 0.125 0.339h-0.249zM24.519 30.504h0.211v0.118c-0.059 0.048-0.135 0.077-0.217 0.077h-0c-0.004 0-0.008 0-0.013 0-0.073 0-0.138-0.034-0.181-0.087l-0-0c-0.043-0.061-0.069-0.137-0.069-0.219 0-0.007 0-0.014 0.001-0.021l-0 0.001c0-0.203 0.089-0.305 0.263-0.305 0.006-0.001 0.013-0.001 0.020-0.001 0.090 0 0.166 0.062 0.187 0.145l0 0.001 0.181-0.035c-0.039-0.178-0.168-0.269-0.387-0.269-0.004-0-0.008-0-0.013-0-0.118 0-0.226 0.045-0.308 0.118l0-0c-0.082 0.081-0.133 0.193-0.133 0.317 0 0.012 0 0.024 0.001 0.036l-0-0.002c-0 0.006-0 0.013-0 0.021 0 0.123 0.045 0.236 0.119 0.323l-0.001-0.001c0.081 0.083 0.194 0.135 0.319 0.135 0.010 0 0.020-0 0.029-0.001l-0.001 0c0.004 0 0.010 0 0.015 0 0.144 0 0.275-0.055 0.373-0.146l-0 0v-0.36h-0.397v0.154zM26.813 29.927h-0.184v0.914h0.64v-0.155h-0.455v-0.759zM28.753 29.927h-0.185v0.914h0.185v-0.914zM30.65 30.537l-0.374-0.61h-0.179v0.914h0.172v-0.598l0.367 0.598h0.183v-0.914h-0.169v0.61zM32.363 30.438h0.455v-0.155h-0.455v-0.2h0.49v-0.156h-0.675v0.914h0.694v-0.155h-0.509v-0.247zM36.521 30.287h-0.36v-0.36h-0.183v0.914h0.183v-0.4h0.36v0.4h0.183v-0.914h-0.183v0.36zM38.246 30.438h0.457v-0.155h-0.457v-0.2h0.491v-0.156h-0.674v0.914h0.692v-0.155h-0.509v-0.247zM40.585 30.439c0.159-0.025 0.24-0.109 0.24-0.254 0.001-0.008 0.002-0.017 0.002-0.026 0-0.073-0.035-0.137-0.090-0.177l-0.001-0c-0.068-0.035-0.147-0.055-0.232-0.055-0.013 0-0.025 0-0.037 0.001l0.002-0h-0.387v0.914h0.183v-0.382h0.037c0.004-0 0.010-0 0.015-0 0.036 0 0.070 0.008 0.101 0.022l-0.002-0.001c0.027 0.017 0.049 0.039 0.065 0.067l0.199 0.29h0.219l-0.111-0.178c-0.050-0.089-0.119-0.163-0.201-0.218l-0.002-0.001zM40.4 30.312h-0.136v-0.229h0.145c0.012-0.001 0.025-0.002 0.039-0.002 0.053 0 0.104 0.009 0.151 0.024l-0.003-0.001c0.025 0.022 0.041 0.054 0.041 0.089 0 0.021-0.005 0.040-0.015 0.057l0-0.001c-0.009 0.016-0.020 0.029-0.035 0.040l-0 0c-0.046 0.014-0.098 0.023-0.153 0.023-0.012 0-0.024-0-0.035-0.001l0.002 0zM42.349 30.438h0.455v-0.155h-0.455v-0.2h0.491v-0.156h-0.677v0.914h0.694v-0.155h-0.509v-0.247z"></path>
</symbol>
<symbol id="icon-modal1" viewBox="0 0 32 32">
<path d="M16 16c4.418 0 8-3.582 8-8s-3.582-8-8-8v0c-4.418 0-8 3.582-8 8s3.582 8 8 8v0zM16 20c-5.339 0-16 2.68-16 8v2c0 1.099 0.901 2 2 2h28c1.099 0 2-0.901 2-2v-2c0-5.32-10.661-8-16-8z"></path>
</symbol>
<symbol id="icon-modal2" viewBox="0 0 32 32">
<path d="M28.864 21.822l-4.524-0.517c-0.124-0.015-0.267-0.024-0.413-0.024-0.98 0-1.867 0.398-2.509 1.041l-3.276 3.276c-5.081-2.621-9.119-6.659-11.671-11.59l-0.070-0.149 3.298-3.296c0.642-0.641 1.038-1.528 1.038-2.507 0-0.146-0.009-0.289-0.026-0.43l0.002 0.017-0.517-4.49c-0.213-1.784-1.717-3.153-3.541-3.153-0.001 0-0.003 0-0.004 0h-3.082c-2.014 0-3.687 1.674-3.562 3.687 0.943 15.212 13.11 27.362 28.305 28.308 2.014 0.123 3.687-1.551 3.687-3.564v-3.082c0-0.006 0-0.013 0-0.020 0-1.811-1.363-3.303-3.12-3.506l-0.016-0.002z"></path>
</symbol>
<symbol id="icon-modal3" viewBox="0 0 43 32">
<path d="M37.333 0h-32c-2.2 0-3.981 1.8-3.981 4l-0.019 24c0 2.2 1.8 4 4 4h32c2.2 0 4-1.8 4-4v-24c0-2.2-1.8-4-4-4zM36.533 8.501l-14.139 8.837c-0.302 0.188-0.668 0.3-1.060 0.3s-0.758-0.112-1.069-0.305l0.009 0.005-14.141-8.84c-0.503-0.301-0.835-0.843-0.835-1.463 0-0.938 0.761-1.699 1.699-1.699 0.349 0 0.673 0.105 0.943 0.285l-0.006-0.004 13.4 8.381 13.4-8.381c0.264-0.176 0.588-0.282 0.937-0.282 0.938 0 1.699 0.761 1.699 1.699 0 0.62-0.332 1.162-0.828 1.459l-0.008 0.004z"></path>
</symbol>
<symbol id="icon-kreuz" viewBox="0 0 32 32">
<path d="M32 3.224l-3.224-3.224-12.776 12.776-12.776-12.776-3.224 3.224 12.776 12.776-12.776 12.776 3.224 3.224 12.776-12.776 12.776 12.776 3.224-3.224-12.776-12.776 12.776-12.776z"></path>
</symbol>
<symbol id="icon-adv1" viewBox="0 0 32 32">
<path d="M30.773 22.098l-8.443-8.505 0.937-4.615c0.241 0.094 0.499 0.143 0.759 0.145h0.006c0.008 0 0.017 0 0.026 0 1.192 0 2.159-0.967 2.159-2.159s-0.967-2.159-2.159-2.159c-1.192 0-2.159 0.967-2.159 2.159 0 0.26 0.046 0.508 0.13 0.739l-0.005-0.015-4.96 0.605-8.090-8.133c-0.096-0.098-0.229-0.159-0.377-0.16h-0c-0.14 0.001-0.274 0.057-0.373 0.155l-1.513 1.504c-0.097 0.097-0.156 0.23-0.156 0.377s0.060 0.281 0.156 0.377v0l0.814 0.825c-1.143 2.062-1.816 4.522-1.816 7.139 0 4.106 1.656 7.825 4.336 10.525l-0.001-0.001c0.043 0.041 0.092 0.073 0.146 0.098-0.032 0.164-0.051 0.353-0.052 0.546v6.188h-6.4c-1.472 0.001-2.666 1.194-2.667 2.666v1.067c0 0.295 0.239 0.533 0.534 0.533h24.534c0.294 0 0.533-0.239 0.533-0.534v-1.067c-0.002-1.472-1.195-2.665-2.666-2.666h-6.4v-2.742c1.003 0.21 2.024 0.317 3.049 0.32 2.58-0.003 5.005-0.663 7.117-1.822l-0.077 0.039 0.818 0.823c0.099 0.101 0.235 0.159 0.377 0.16 0.14-0.001 0.274-0.056 0.373-0.155l1.512-1.505c0.096-0.097 0.156-0.23 0.156-0.377s-0.060-0.28-0.156-0.377v0zM23.28 6.233c0.193-0.192 0.458-0.31 0.752-0.31 0.589 0 1.067 0.478 1.067 1.066s-0.477 1.066-1.067 1.066c-0 0-0 0-0 0h-0.003c-0.587-0.003-1.061-0.479-1.061-1.066 0-0.296 0.12-0.563 0.315-0.756l0-0h-0.003zM22.024 9.738l-0.599 2.945-1.175-1.182 1.774-1.764zM21.419 8.836l-1.92 1.909-1.485-1.493 3.405-0.415zM24.004 28.8c0.884 0 1.6 0.716 1.6 1.6v0 0.534h-23.466v-0.534c0-0.884 0.716-1.6 1.6-1.6h20.267zM16.538 26.666v1.067h-5.334v-1.067h5.334zM11.204 25.6v-4.053c0-1.294 1.197-2.346 2.666-2.346s2.667 1.053 2.667 2.346v4.053h-5.334zM17.604 23.904v-2.357c0-1.882-1.675-3.413-3.733-3.413-0.017-0-0.038-0-0.058-0-1.353 0-2.54 0.707-3.213 1.771l-0.009 0.016c-2.36-2.482-3.811-5.846-3.811-9.549 0-2.314 0.567-4.496 1.569-6.414l-0.036 0.077 18.602 18.709c-1.823 0.947-3.98 1.502-6.266 1.502-1.079 0-2.128-0.124-3.136-0.357l0.093 0.018zM28.893 23.221l-21.057-21.18 0.755-0.752 7.935 7.98c0.003 0 0.006 0.007 0.009 0.009l13.115 13.191-0.757 0.752z"></path>
<path d="M13.876 20.267h-0.005c-0.001 0-0.002 0-0.002 0-0.884 0-1.6 0.716-1.6 1.6s0.715 1.599 1.597 1.6h0.005c0.001 0 0.002 0 0.002 0 0.884 0 1.6-0.716 1.6-1.6s-0.715-1.599-1.597-1.6h-0zM14.249 22.245c-0.096 0.096-0.23 0.155-0.376 0.155-0.295 0-0.534-0.239-0.534-0.534s0.238-0.532 0.531-0.534h0c0.293 0.002 0.531 0.24 0.531 0.534 0 0.148-0.060 0.281-0.157 0.378l-0 0h0.005z"></path>
</symbol>
<symbol id="icon-adv2" viewBox="0 0 32 32">
<path d="M31.297 15.301c-0.002-8.452-6.855-15.303-15.308-15.301s-15.303 6.855-15.301 15.308c0.002 6.788 4.422 12.543 10.541 14.545l0.108 0.031c0.060 0.019 0.123 0.029 0.187 0.029 0.121 0 0.239-0.032 0.342-0.093 0.135-0.080 0.236-0.207 0.284-0.357l3.865-12.25c1.054-0.004 1.906-0.859 1.906-1.913 0-1.057-0.856-1.913-1.913-1.913-0.303 0-0.59 0.070-0.844 0.196l0.011-0.005-5.106-5.107c-0.115-0.115-0.275-0.187-0.451-0.187-0.352 0-0.638 0.285-0.638 0.638 0 0.176 0.071 0.336 0.187 0.451v0l5.104 5.109c-0.121 0.241-0.191 0.525-0.191 0.826 0 0.601 0.283 1.137 0.723 1.48l0.004 0.003-3.683 11.673c-7.278-2.681-11.005-10.754-8.323-18.032 2.681-7.277 10.755-11.005 18.032-8.323s11.004 10.755 8.323 18.032c-1.345 3.581-4.004 6.406-7.374 7.938l-0.088 0.036-0.398-1.875c-0.063-0.291-0.318-0.505-0.624-0.505-0.163 0-0.312 0.061-0.425 0.162l0.001-0.001-3.837 3.425c-0.132 0.117-0.214 0.287-0.214 0.477 0 0.283 0.185 0.524 0.441 0.607l0.005 0.001 4.899 1.564c0.058 0.020 0.126 0.031 0.196 0.031 0.352 0 0.637-0.285 0.637-0.637 0-0.047-0.005-0.093-0.015-0.137l0.001 0.004-0.391-1.839c5.528-2.374 9.329-7.772 9.329-14.057 0-0.011 0-0.023-0-0.034v0.002zM15.992 14.664c0.352 0 0.638 0.286 0.638 0.638s-0.286 0.638-0.638 0.638v0c-0.352 0-0.638-0.286-0.638-0.638s0.286-0.638 0.638-0.638v0zM18.093 29.527l2.184-1.948 0.603 2.84-2.787-0.892z"></path>
<path d="M15.354 3.185v1.275c0 0.352 0.285 0.638 0.637 0.638s0.638-0.285 0.638-0.638v-1.275c-0.014-0.341-0.294-0.613-0.637-0.613s-0.624 0.271-0.637 0.611l-0 0.001zM3.876 14.664c-0.352 0-0.637 0.285-0.637 0.637s0.285 0.637 0.638 0.637h1.275c0.352 0 0.638-0.285 0.638-0.637s-0.285-0.637-0.638-0.637h-1.275zM28.108 15.939c0.352 0 0.637-0.285 0.637-0.637s-0.285-0.637-0.637-0.637h-1.275c-0.341 0.014-0.613 0.294-0.613 0.637s0.271 0.624 0.611 0.637l0.001 0h1.275z"></path>
</symbol>
<symbol id="icon-adv3" viewBox="0 0 32 32">
<path d="M14.925 14.965h1.066v4.797h-1.066v-4.797zM19.19 17.097h1.066v2.665h-1.066v-2.665zM10.661 18.696h1.066v1.066h-1.066v-1.066zM7.463 18.163h1.066v1.599h-1.066v-1.599z"></path>
<path d="M1.599 28.291h25.587c0 0 0 0 0 0 0.883 0 1.599-0.716 1.599-1.599v0-2.133c-0-0.883-0.716-1.599-1.599-1.599h-0.533v-13.293l3.028-2.868c0.207 0.105 0.452 0.166 0.711 0.166 0.888 0 1.608-0.72 1.608-1.608s-0.72-1.608-1.608-1.608c-0.888 0-1.608 0.72-1.608 1.608 0 0.247 0.055 0.48 0.155 0.689l-0.004-0.010-2.282 2.163v-1.23c0-0.883-0.716-1.599-1.599-1.599v0h-21.322c-0 0-0 0-0.001 0-0.883 0-1.599 0.716-1.599 1.599 0 0 0 0 0 0.001v-0 15.991h-0.533c-0.883 0-1.599 0.716-1.599 1.599v0 2.133c0 0.883 0.716 1.599 1.599 1.599v0zM30.384 4.837c0.294 0 0.533 0.239 0.533 0.533s-0.239 0.533-0.533 0.533v0c-0.294 0-0.533-0.239-0.533-0.533s0.239-0.533 0.533-0.533v0zM3.199 6.969c0-0.295 0.239-0.534 0.533-0.534h21.322c0.294 0 0.533 0.239 0.533 0.534v2.238l-1.066 1.013v-2.185c0-0.295-0.238-0.533-0.533-0.533h-19.19c-0.295 0-0.533 0.239-0.533 0.533v13.326c0 0.295 0.239 0.534 0.533 0.534h19.19c0.294 0 0.533-0.239 0.533-0.534v-9.674l1.066-1.010v12.283h-22.388v-15.991zM7.996 13.899c-0.001 0-0.003 0-0.005 0-0.883 0-1.599 0.716-1.599 1.599s0.716 1.599 1.599 1.599c0.432 0 0.824-0.171 1.112-0.45l-0 0 1.853 0.93c0.215 0.108 0.476 0.058 0.636-0.122l3.938-4.431 3.872 2.902c0.208 0.156 0.498 0.139 0.686-0.040l3.365-3.188v8.131h-18.123v-12.26h18.124v2.66l-3.772 3.572-3.905-2.928c-0.088-0.066-0.199-0.106-0.319-0.106-0.158 0-0.3 0.069-0.398 0.178l-0 0.001-3.993 4.493-1.493-0.746c0.011-0.064 0.018-0.129 0.021-0.194-0-0.883-0.716-1.599-1.599-1.599h-0zM8.529 15.498c0 0.294-0.239 0.533-0.533 0.533s-0.533-0.239-0.533-0.533v0c0-0.294 0.239-0.533 0.533-0.533s0.533 0.239 0.533 0.533v0zM11.727 24.026h5.331v0.533c0 0.294-0.238 0.533-0.533 0.533h-4.264c-0.294 0-0.533-0.239-0.533-0.533v0-0.533zM1.066 24.56c0-0.294 0.239-0.533 0.533-0.533h9.062v0.533c0 0 0 0 0 0 0 0.883 0.716 1.599 1.599 1.599h4.265c0.883-0 1.599-0.716 1.599-1.599v0-0.533h9.061c0.295 0 0.534 0.238 0.534 0.533v2.133c0 0.294-0.239 0.533-0.534 0.533h-25.586c-0.294 0-0.533-0.239-0.533-0.533v0-2.133z"></path>
</symbol>
<symbol id="icon-adv4" viewBox="0 0 32 32">
<path d="M31.974 4.524c-0.064-0.191-0.227-0.332-0.427-0.362l-0.003-0-1.911-0.278-0.855-1.731c-0.179-0.365-0.776-0.365-0.956 0l-0.855 1.731-1.91 0.278c-0.26 0.039-0.457 0.26-0.457 0.528 0 0.149 0.061 0.285 0.161 0.381l1.383 1.348-0.326 1.903c-0.034 0.2 0.048 0.402 0.212 0.521 0.166 0.12 0.383 0.136 0.562 0.040l1.709-0.899 1.709 0.899c0.072 0.038 0.157 0.061 0.247 0.061 0.295 0 0.534-0.239 0.534-0.534 0-0.031-0.003-0.062-0.008-0.092l0 0.003-0.326-1.903 1.383-1.348c0.099-0.097 0.161-0.233 0.161-0.382 0-0.059-0.009-0.115-0.027-0.168l0.001 0.004zM29.511 5.851c-0.125 0.122-0.183 0.299-0.153 0.472l0.191 1.114-1-0.526c-0.072-0.039-0.158-0.062-0.248-0.062s-0.177 0.023-0.251 0.063l0.003-0.001-1 0.526 0.191-1.114c0.005-0.027 0.008-0.058 0.008-0.090 0-0.15-0.061-0.285-0.161-0.382l-0.81-0.79 1.119-0.162c0.174-0.025 0.323-0.135 0.401-0.292l0.5-1.013 0.501 1.013c0.078 0.157 0.228 0.267 0.402 0.292l1.119 0.162-0.809 0.79zM26.134 20.522h-1.067v1.067h1.067v-1.067zM26.134 22.655h-1.067v1.067h1.067v-1.067zM27.2 21.589h-1.067v1.067h1.067v-1.067zM25.067 21.589h-1.067v1.067h1.067v-1.067zM22.4 26.389h-1.067v1.067h1.067v-1.067zM22.4 28.523h-1.067v1.067h1.067v-1.067zM23.467 27.456h-1.067v1.067h1.067v-1.067z"></path>
<path d="M21.334 27.456h-1.067v1.067h1.067v-1.067zM16 24.256h-1.066v1.067h1.066v-1.067zM16 26.389h-1.066v1.067h1.066v-1.067zM17.067 25.323h-1.067v1.067h1.067v-1.067zM14.934 25.323h-1.067v1.067h1.067v-1.067zM5.867 6.122h-1.066v1.066h1.066v-1.066zM5.867 8.255h-1.066v1.067h1.066v-1.066zM6.933 7.189h-1.066v1.067h1.066v-1.067zM4.8 7.189h-1.067v1.067h1.067v-1.067z"></path>
<path d="M24.715 14.159c-0.28-0.377-0.699-0.636-1.179-0.704l-0.009-0.001c-0.076-0.012-0.164-0.018-0.254-0.018-0.411 0-0.789 0.139-1.090 0.374l0.004-0.003-1.252 0.96-1.898 1.417-1.358-0.541c2.421-1.087 4.114-3.508 4.114-6.32 0-3.823-3.122-6.933-6.961-6.933s-6.962 3.11-6.962 6.933c0 1.386 0.414 2.674 1.12 3.758l-2.769-0.024c-0.008 0-0.015 0.005-0.024 0.005-0.053 0.002-0.104 0.012-0.155 0.030-0.013 0.005-0.026 0.008-0.038 0.014-0.006 0.002-0.013 0.003-0.019 0.007l-3.234 1.597-1.893 0.911c-0.024 0.011-0.045 0.023-0.064 0.036l0.001-0.001c-0.482 0.324-0.794 0.866-0.794 1.482 0 0.297 0.073 0.576 0.201 0.822l-0.005-0.010c0.219 0.424 0.592 0.743 1.043 0.886l0.013 0.003c0.161 0.053 0.345 0.083 0.537 0.083 0.308 0 0.598-0.078 0.851-0.216l-0.009 0.005 1.388-0.738 2.264-1.169 1.357-0.008-5.442 5.415c0 0.001-0.001 0.001-0.002 0.002l-1.339 1.333c-0.303 0.299-0.49 0.714-0.49 1.173 0 0.002 0 0.003 0 0.005v-0c0 0.445 0.173 0.863 0.49 1.178 0.325 0.323 0.752 0.485 1.179 0.485s0.855-0.162 1.18-0.485l1.314-1.308 1.74-1.3 0.901 0.897-1.761 1.754c-0 0.001-0.001 0.001-0.002 0.001l-1.339 1.334c-0.303 0.299-0.49 0.714-0.49 1.173 0 0.002 0 0.003 0 0.005v-0c0 0.445 0.174 0.863 0.49 1.179 0.325 0.323 0.752 0.485 1.18 0.485s0.855-0.162 1.18-0.485l3.482-3.466c0-0.001 0-0.002 0.001-0.002l1.010-1-0.004-0.003c0.007-0.006 0.015-0.009 0.022-0.015l5.166-5.659 3.471 0.494c0.020 0.003 0.044 0.004 0.068 0.004 0.070 0 0.137-0.014 0.198-0.039l-0.004 0.001c0.017-0.006 0.033-0.015 0.050-0.023 0.019-0.009 0.039-0.015 0.057-0.027l3.213-2.134c0.012-0.008 0.018-0.020 0.029-0.029 0.012-0.010 0.029-0.014 0.040-0.025l1.272-1.192c0.347-0.326 0.564-0.787 0.564-1.299 0-0.4-0.132-0.77-0.355-1.067l0.003 0.005zM2.13 17.77c-0.173 0.093-0.37 0.111-0.558 0.052-0.295-0.093-0.505-0.364-0.505-0.683 0-0.236 0.114-0.445 0.29-0.575l0.002-0.001 1.314-0.632 0.316 0.925 0.133 0.388-0.993 0.527zM5.628 15.943l-1.548 0.8-0.255-0.747-0.183-0.537 2.026-1-0.040 1.483zM20.727 9.322c0 0.918-0.219 1.785-0.599 2.559l-4.181-1.899c-0.044-0.575-0.342-1.072-0.782-1.384l-0.006-0.004 1.464-4.86c2.378 0.755 4.105 2.974 4.105 5.587zM8.938 9.322c0-3.235 2.644-5.867 5.894-5.867 0.253 0 0.5 0.022 0.745 0.053l-1.432 4.753c-0.019 0-0.037-0.005-0.057-0.005-0 0-0.001 0-0.001 0-1.032 0-1.869 0.835-1.871 1.866v0c0.003 1.031 0.84 1.867 1.872 1.867 0 0 0 0 0.001 0h-0c0.694 0 1.294-0.383 1.618-0.944l3.862 1.755c-1.075 1.447-2.795 2.39-4.736 2.39-3.25 0-5.895-2.633-5.895-5.867zM14.895 10.122c0 0.441-0.362 0.8-0.806 0.8-0.001 0-0.001 0-0.002 0-0.443 0-0.802-0.358-0.804-0.8v-0c0-0.441 0.361-0.8 0.806-0.8s0.806 0.359 0.806 0.8zM2.465 25.146c-0.11 0.108-0.261 0.175-0.428 0.175s-0.317-0.067-0.427-0.175l0 0c-0.109-0.108-0.176-0.257-0.176-0.422s0.067-0.315 0.176-0.422l0-0 0.962-0.959 0.851 0.848-0.958 0.955zM5.678 28.88c-0.11 0.109-0.261 0.176-0.428 0.176s-0.317-0.067-0.427-0.175l0 0c-0.109-0.108-0.176-0.257-0.176-0.422s0.067-0.315 0.176-0.422l0-0 0.963-0.959 0.851 0.848-0.96 0.955zM9.161 25.411l-0.002 0.001-1.765 1.76-0.851-0.848 1.763-1.756s0.001 0 0.002-0.001c0.040-0.040 0.065-0.088 0.090-0.135 0.007-0.014 0.020-0.026 0.026-0.040 0.017-0.041 0.019-0.085 0.025-0.129 0.004-0.024 0.014-0.047 0.014-0.073 0-0.035-0.012-0.070-0.020-0.105-0.007-0.032-0.007-0.065-0.018-0.096-0.020-0.050-0.055-0.095-0.091-0.137-0.010-0.012-0.014-0.027-0.025-0.038h-0.001l-0.001-0.002-1.607-1.6c-0.017-0.017-0.039-0.024-0.058-0.038-0.025-0.021-0.054-0.040-0.084-0.056l-0.003-0.001c-0.027-0.013-0.058-0.024-0.090-0.032l-0.003-0.001c-0.030-0.009-0.065-0.016-0.101-0.019l-0.002-0c-0.006-0-0.013-0-0.020-0-0.026 0-0.052 0.002-0.078 0.006l0.003-0c-0.039 0.004-0.074 0.011-0.108 0.021l0.004-0.001c-0.036 0.013-0.067 0.028-0.096 0.046l0.002-0.001c-0.020 0.011-0.043 0.015-0.061 0.029l-1.774 1.324-0.901-0.897 2.399-2.386 4.36 4.289-0.927 0.919zM15.979 18.394c-0.015-0.002-0.030 0.004-0.045 0.003-0.008-0-0.018-0.001-0.028-0.001-0.063 0-0.123 0.011-0.179 0.030l0.004-0.001c-0.037 0.013-0.069 0.029-0.099 0.048l0.002-0.001c-0.030 0.018-0.057 0.038-0.083 0.061-0.013 0.011-0.028 0.017-0.040 0.029l-4.699 5.146-4.328-4.257 2.833-2.818c0.096-0.097 0.156-0.23 0.156-0.377 0-0.295-0.239-0.534-0.534-0.534-0 0-0.001 0-0.001 0h0l-2.219 0.013 0.027-1.607 3.104 0.027c1.264 1.297 3.027 2.101 4.978 2.101 0.001 0 0.002 0 0.003 0h-0c0.438 0 0.864-0.045 1.279-0.122 0.040 0.032 0.079 0.064 0.13 0.085l2.409 0.96 0.152 0.758 0.178 0.885-3.003-0.427zM20.020 18.573l-0.314-1.558 1.447-1.080 0.947 1.257-2.080 1.381zM23.774 15.742l-0.838 0.785-0.931-1.236 0.831-0.637c0.155-0.12 0.351-0.168 0.543-0.143 0.194 0.027 0.364 0.128 0.48 0.284 0.217 0.292 0.18 0.699-0.085 0.947z"></path>
<path d="M13.602 18.544l-2.143-2.134c-0.096-0.096-0.229-0.155-0.376-0.155s-0.28 0.059-0.376 0.155l-2.143 2.134c-0.097 0.097-0.156 0.231-0.156 0.378s0.060 0.281 0.156 0.378l-0-0 2.143 2.133c0.096 0.096 0.229 0.155 0.376 0.155s0.28-0.059 0.376-0.155l2.143-2.133c0.097-0.097 0.157-0.23 0.157-0.378s-0.060-0.282-0.157-0.378l-0-0zM11.083 20.303l-1.386-1.381 1.386-1.381 1.387 1.381-1.387 1.381zM17.164 5.071l-0.258 1.035c0.071 0.018 1.738 0.452 1.738 2.149h1.067c0-2.018-1.666-2.966-2.546-3.185zM19.711 9.322h-1.067v1.067h1.067v-1.067z"></path>
</symbol>
</defs>
</svg>
